<?xml version="1.0" standalone="no"?>
<!DOCTYPE svg PUBLIC "-//W3C//DTD SVG 20010904//EN"
 "http://www.w3.org/TR/2001/REC-SVG-20010904/DTD/svg10.dtd">
<svg version="1.0" xmlns="http://www.w3.org/2000/svg"
 width="960.000000pt" height="960.000000pt" viewBox="0 0 960.000000 960.000000"
 preserveAspectRatio="xMidYMid meet">
<metadata>
Created by potrace 1.11, written by Peter Selinger 2001-2013
</metadata>
<g transform="translate(0.000000,960.000000) scale(0.100000,-0.100000)"
fill="#000000" stroke="none">
<path d="M0 4800 l0 -4800 4800 0 4800 0 0 4800 0 4800 -4800 0 -4800 0 0
-4800z m7531 3688 c0 -13 2 -40 4 -60 5 -43 -23 -128 -53 -166 -17 -21 -20
-22 -15 -7 4 15 -3 11 -26 -13 -17 -18 -31 -40 -31 -48 0 -7 -18 -33 -40 -56
-29 -31 -39 -49 -36 -64 4 -13 -7 -40 -29 -74 -19 -30 -35 -59 -35 -65 0 -5
-3 -21 -7 -35 -6 -25 -6 -25 15 -6 29 25 28 10 -3 -39 -13 -22 -25 -53 -25
-68 0 -15 -9 -45 -20 -67 -11 -22 -20 -50 -20 -62 0 -13 -9 -38 -20 -56 -11
-18 -20 -40 -20 -50 0 -9 -19 -46 -43 -82 -75 -112 -117 -178 -117 -184 0 -3
-7 -14 -15 -23 -8 -10 -39 -49 -71 -88 -31 -38 -81 -87 -112 -108 -32 -21 -58
-43 -60 -48 -2 -5 -10 -9 -17 -9 -8 0 -15 -10 -17 -22 -2 -13 -11 -24 -22 -26
-15 -3 -18 1 -14 23 5 23 3 26 -16 21 -11 -3 -40 -8 -64 -12 -36 -6 -51 -16
-102 -73 l-59 -66 20 -22 c17 -17 19 -25 10 -42 -13 -23 -41 -27 -59 -9 -10
10 -16 7 -29 -12 -10 -14 -36 -45 -58 -69 -35 -39 -40 -49 -40 -92 0 -39 2
-46 11 -34 15 20 28 19 20 -2 -4 -9 9 -1 29 20 34 35 44 57 27 57 -5 0 -15
-11 -22 -25 -16 -30 -35 -28 -36 3 -1 24 20 47 34 38 5 -3 16 12 24 33 9 23
24 40 37 44 22 5 28 1 56 -38 12 -16 16 -17 24 -6 14 21 24 -5 11 -29 -8 -15
-17 -19 -31 -15 -11 4 -19 2 -19 -4 0 -6 -6 -11 -14 -11 -19 0 -11 -91 9 -103
9 -4 22 -23 29 -40 l13 -32 0 40 c0 22 -4 46 -10 52 -5 7 -7 20 -3 28 3 8 1
15 -4 15 -6 0 -10 10 -10 23 0 17 2 19 9 8 15 -23 48 41 46 86 -2 28 3 41 20
55 13 10 30 18 39 18 9 0 16 7 16 15 0 8 7 15 15 15 14 0 19 -12 16 -32 -2
-13 20 -9 35 6 8 8 11 21 8 29 -3 8 -1 18 5 22 6 3 14 -1 17 -10 4 -10 -4 -28
-24 -48 -23 -24 -30 -38 -25 -55 4 -17 10 -21 25 -17 16 6 18 2 15 -28 -5 -45
-16 -62 -30 -48 -15 15 -27 14 -27 -4 0 -8 5 -15 11 -15 6 0 1 -12 -10 -27
-12 -14 -19 -29 -15 -32 3 -3 10 2 16 12 7 14 13 16 24 6 18 -15 8 -29 -22
-29 -16 0 -24 -6 -25 -17 0 -11 -3 -13 -6 -5 -2 7 -14 17 -26 24 -21 11 -21
10 -7 -7 9 -11 10 -16 3 -11 -15 8 -65 -43 -59 -59 2 -6 -5 -12 -16 -12 -11
-1 -29 -10 -39 -19 -21 -19 -27 -6 -6 15 10 10 9 11 -5 6 -11 -5 -18 -2 -18 5
0 10 -3 10 -15 0 -11 -9 -14 -28 -10 -74 2 -43 1 -54 -5 -38 -5 12 -7 30 -3
40 5 14 4 15 -8 4 -14 -13 -15 -20 -22 -93 -3 -39 17 -70 27 -43 5 12 8 13 20
2 12 -11 10 -14 -12 -20 -18 -5 -29 -2 -38 10 -10 14 -14 14 -28 2 -10 -7 -22
-23 -28 -34 -10 -19 -8 -18 16 3 14 14 26 20 26 14 0 -6 -7 -16 -15 -23 -16
-13 -21 -35 -6 -26 5 4 11 1 13 -6 3 -8 12 -2 22 15 10 15 25 27 34 27 11 0 8
-8 -13 -30 -16 -16 -26 -32 -24 -35 3 -2 43 32 88 78 46 45 77 71 70 57 -7
-14 -12 -29 -11 -33 1 -5 -2 -6 -8 -2 -6 4 -7 -1 -3 -11 6 -15 8 -15 24 4 9
12 20 22 24 22 4 0 2 -7 -5 -15 -21 -25 -5 -27 24 -4 15 12 29 19 32 16 7 -7
-24 -67 -34 -67 -9 0 -98 -84 -152 -143 -26 -28 -31 -40 -22 -46 10 -6 10 -11
-3 -21 -13 -11 -15 -10 -9 4 3 9 2 16 -2 16 -11 0 -49 -57 -58 -88 -4 -12 -21
-29 -37 -38 -25 -12 -28 -18 -18 -30 6 -8 19 -14 28 -14 18 0 45 -36 36 -50
-3 -5 2 -13 11 -18 16 -9 15 -12 -4 -33 -12 -12 -22 -26 -22 -31 0 -4 -9 -8
-20 -8 -19 0 -19 -14 -22 -1206 l-3 -1206 -25 -20 c-14 -11 -38 -32 -55 -46
-16 -15 -95 -82 -175 -150 -80 -68 -174 -148 -209 -178 l-63 -54 -945 0 -945
1 -20 -23 c-17 -20 -19 -31 -13 -78 4 -30 11 -63 16 -72 19 -36 10 -80 -26
-124 -32 -39 -39 -42 -91 -46 -52 -3 -59 -1 -91 30 -28 26 -43 32 -78 32 -36
0 -50 -6 -75 -30 -35 -34 -43 -36 -60 -15 -22 26 -8 50 31 51 20 1 48 10 62
19 14 9 39 15 54 14 37 -4 78 24 69 47 -3 9 -2 22 4 29 14 16 1 75 -16 75 -8
0 -14 7 -14 15 0 27 -33 16 -69 -23 -19 -20 -35 -46 -35 -57 -1 -13 -8 -20
-20 -20 -12 0 -38 -22 -63 -53 -24 -29 -43 -48 -43 -42 0 25 -15 7 -17 -22 -2
-18 -14 -43 -29 -59 -15 -15 -24 -35 -22 -46 3 -10 -4 -35 -14 -56 -15 -30
-24 -37 -47 -37 -16 0 -31 6 -35 15 -6 17 -36 21 -36 5 0 -5 -6 -10 -14 -10
-7 0 -21 -10 -30 -23 -10 -13 -15 -15 -12 -6 4 16 -11 39 -26 39 -4 0 -8 -5
-8 -11 0 -5 4 -7 10 -4 17 10 11 -11 -10 -38 -11 -14 -20 -32 -20 -41 0 -9 -4
-16 -10 -16 -5 0 -10 7 -10 15 0 8 -5 15 -11 15 -5 0 -7 5 -3 12 4 6 3 8 -3 5
-12 -8 -5 -57 9 -57 5 0 7 -4 3 -10 -3 -5 -12 -7 -20 -3 -8 3 -15 0 -15 -6 0
-15 23 -14 46 4 22 17 54 20 54 5 0 -5 7 -10 15 -10 9 0 20 -11 26 -24 6 -13
25 -29 42 -37 36 -16 49 -55 22 -65 -9 -4 -22 -22 -30 -40 -13 -32 -17 -34
-59 -34 -26 0 -46 -4 -46 -10 0 -5 7 -10 15 -10 8 0 19 -9 25 -20 8 -16 6 -26
-12 -50 -25 -34 -36 -37 -53 -13 -11 15 -15 13 -33 -23 -31 -61 -78 -107 -101
-99 -22 7 -59 40 -82 72 l-15 22 -84 -18 c-46 -10 -86 -24 -88 -30 -3 -8 -8
-9 -16 -2 -9 8 -37 -14 -106 -84 -52 -51 -98 -91 -103 -88 -6 3 -7 1 -3 -5 4
-7 2 -12 -4 -12 -6 0 -8 -4 -5 -10 3 -5 -1 -10 -9 -10 -9 0 -23 -12 -32 -26
-12 -17 -23 -24 -36 -21 -15 4 -18 1 -13 -14 5 -14 2 -19 -13 -19 -11 0 -23
-7 -26 -16 -4 -9 -9 -14 -13 -11 -3 4 -12 2 -20 -4 -19 -16 -48 8 -32 27 6 7
8 17 5 22 -3 5 3 18 13 29 10 11 22 30 26 44 4 13 18 38 31 55 13 17 24 36 24
43 0 7 5 9 10 6 6 -3 10 5 10 19 0 32 20 45 21 14 1 -21 1 -21 11 5 5 15 14
27 20 27 6 0 8 7 5 15 -9 21 15 61 34 57 10 -2 19 5 22 18 3 11 1 20 -4 20 -5
0 -9 5 -9 11 0 5 3 8 8 6 4 -3 16 -1 27 4 17 6 17 8 3 8 -22 1 -24 32 -4 69
17 35 35 84 53 151 8 30 24 67 36 83 11 15 17 31 12 35 -4 5 -10 2 -12 -4 -3
-7 -11 -13 -19 -13 -9 0 -12 5 -8 12 4 7 3 8 -4 4 -6 -4 -9 -13 -5 -22 9 -25
-25 -54 -58 -47 -21 4 -29 2 -29 -8 -1 -8 -12 -27 -25 -44 -20 -23 -27 -27
-34 -16 -6 9 -11 10 -15 2 -4 -6 -3 -11 2 -11 6 0 8 -9 5 -20 -3 -10 -8 -19
-12 -19 -20 3 -50 -16 -56 -34 -4 -14 -8 -17 -12 -9 -2 6 -9 9 -15 6 -7 -4 -6
-9 2 -14 14 -8 4 -70 -10 -70 -5 0 -6 8 -3 18 6 15 5 15 -10 3 -9 -7 -17 -20
-17 -27 0 -8 -4 -14 -10 -14 -10 0 -3 26 13 50 6 8 -3 1 -19 -16 -16 -17 -43
-56 -59 -87 -27 -52 -76 -122 -60 -87 4 8 -7 -1 -23 -20 -17 -19 -29 -37 -27
-41 2 -3 -2 -6 -9 -6 -17 0 -12 42 7 62 9 8 19 24 22 35 3 11 11 20 17 20 11
0 37 29 38 43 0 5 -5 5 -12 1 -7 -4 -8 -3 -4 5 4 6 11 9 16 6 5 -3 14 5 21 17
12 22 11 22 -7 8 -18 -15 -18 -14 -2 10 9 14 21 24 26 23 10 -2 22 12 89 104
40 55 1 20 -44 -38 -20 -27 -38 -47 -40 -46 -9 10 83 149 140 211 9 11 17 23
17 28 0 13 -18 9 -23 -4 -4 -10 -6 -10 -6 -1 -1 7 9 17 20 24 15 8 19 8 15 0
-4 -6 -5 -11 -2 -11 7 0 117 148 163 219 51 80 45 96 -29 80 -40 -9 -51 -8
-64 5 -8 9 -19 16 -23 16 -18 0 -3 49 42 140 17 35 32 70 33 77 3 20 51 73 59
65 5 -4 5 -1 1 5 -4 8 11 33 40 63 46 49 72 64 60 35 -3 -8 -4 -15 -2 -15 2 0
38 40 81 90 42 49 81 88 85 85 4 -3 14 3 21 13 13 15 12 16 -3 3 -29 -22 -21
3 10 32 16 15 32 24 36 20 4 -4 5 -1 2 7 -6 15 82 135 92 126 2 -3 -1 -12 -8
-21 -7 -9 -11 -18 -8 -20 5 -5 108 108 149 165 14 19 51 60 82 91 32 31 57 61
57 66 0 6 9 18 20 28 11 10 20 23 20 29 0 6 14 26 30 44 l30 33 0 1263 1 1262
57 48 c31 26 145 129 253 227 l196 180 789 -2 c434 -1 798 -2 809 -2 56 0 72
7 67 28 -3 11 -9 26 -15 32 -13 17 -2 43 18 43 9 0 31 11 48 24 53 39 56 39
75 6 19 -30 19 -30 37 -10 17 19 17 20 -16 34 -56 23 -79 28 -79 18 0 -15 -43
-2 -57 16 -19 23 -16 40 8 53 25 13 69 -5 69 -28 0 -8 6 -13 13 -12 11 2 50
-12 91 -33 16 -8 18 -7 13 7 -4 9 -3 13 2 10 5 -3 12 -1 16 5 3 5 3 10 -2 10
-11 0 -34 51 -27 61 10 16 32 9 37 -11 3 -11 14 -20 24 -20 19 0 83 69 96 103
3 9 12 17 20 17 13 0 57 52 57 67 0 5 9 14 21 21 17 11 20 11 13 0 -4 -7 7 0
24 16 18 17 32 26 32 21 0 -12 54 45 68 72 24 44 10 37 -48 -27 -32 -36 -59
-60 -60 -54 0 6 11 21 25 34 14 13 25 28 25 34 0 5 17 26 38 45 21 20 49 52
63 71 13 19 40 50 61 69 20 18 35 38 32 45 -3 7 4 20 14 29 18 16 19 16 18
-15 -1 -18 -5 -40 -10 -48 -6 -9 -1 -8 12 4 12 10 19 22 17 27 -3 4 3 15 12
25 10 10 18 28 18 41 1 26 -5 29 -23 11 -7 -7 -12 -9 -12 -5 0 15 49 83 91
129 85 91 99 106 99 114 0 8 100 104 110 104 7 0 206 202 274 280 27 30 43 47
36 37 -7 -9 -10 -20 -7 -24 7 -6 -26 -74 -49 -103 -16 -20 -49 -80 -57 -105
-7 -19 -6 -19 7 -1 8 10 20 16 26 14 7 -2 -13 -37 -45 -83 -31 -43 -62 -91
-68 -105 -10 -25 -12 -33 -15 -121 -1 -33 -7 -49 -18 -53 -11 -4 -15 -2 -11 8
7 17 -11 86 -21 86 -11 0 -46 -63 -47 -85 -3 -45 -34 -125 -49 -125 -17 0
-100 -146 -91 -161 7 -11 26 -12 24 -1 -4 21 2 42 11 42 13 0 13 -47 0 -55 -6
-4 -8 -11 -4 -16 3 -5 0 -16 -6 -24 -7 -8 -9 -15 -6 -15 38 0 313 279 299 304
-3 6 -2 8 2 3 5 -4 21 5 37 20 38 36 36 23 -4 -24 l-32 -38 33 30 c18 17 44
47 57 68 14 20 38 49 56 65 43 37 208 230 208 242 0 6 16 34 35 63 86 130 134
183 237 264 58 46 128 127 128 148 0 16 39 65 51 65 5 0 9 -10 10 -22z m-2275
-45 c-10 -10 -19 5 -10 18 6 11 8 11 12 0 2 -7 1 -15 -2 -18z m-269 -169 c-9
-9 -28 6 -21 18 4 6 10 6 17 -1 6 -6 8 -13 4 -17z m1992 -221 c-6 -20 -29 -55
-51 -78 -34 -38 -37 -46 -28 -69 6 -16 6 -26 0 -26 -5 0 -7 -6 -4 -14 3 -8 0
-17 -7 -22 -9 -5 -11 3 -6 34 6 51 0 48 -50 -25 -56 -83 -59 -91 -27 -63 15
14 22 17 15 7 -8 -9 -11 -20 -9 -23 9 -9 46 50 40 65 -3 8 0 11 7 7 17 -11 13
-37 -6 -52 -16 -12 -16 -15 -3 -25 13 -9 12 -10 -4 -5 -14 5 -17 2 -12 -10 4
-11 -1 -18 -14 -21 -11 -3 -20 -10 -20 -15 0 -16 -73 -97 -83 -91 -5 3 3 18
18 33 15 16 24 33 20 40 -4 6 -1 17 5 25 9 10 9 15 1 15 -6 0 -23 -18 -37 -40
-15 -22 -32 -40 -38 -40 -6 0 -22 -15 -35 -33 -14 -19 -21 -24 -17 -12 4 12
-7 4 -28 -20 -46 -52 -46 -36 -1 19 19 24 35 48 35 55 0 6 4 11 9 11 4 0 33
37 62 82 30 45 70 105 89 134 44 67 184 218 188 204 2 -5 -2 -26 -9 -47z
m-1899 -93 c0 -5 -4 -10 -10 -10 -5 0 -10 5 -10 10 0 6 5 10 10 10 6 0 10 -4
10 -10z m1035 -40 c0 -16 -6 -26 -18 -28 -19 -4 -32 20 -23 44 9 25 41 13 41
-16z m-885 -10 c0 -5 -4 -10 -10 -10 -5 0 -10 5 -10 10 0 6 5 10 10 10 6 0 10
-4 10 -10z m-1990 -26 c0 -8 -4 -12 -10 -9 -5 3 -10 10 -10 16 0 5 5 9 10 9 6
0 10 -7 10 -16z m2533 -1 c9 -9 -13 -34 -24 -27 -14 8 -11 34 4 34 8 0 17 -3
20 -7z m-86 -29 c-9 -9 -28 6 -21 18 4 6 10 6 17 -1 6 -6 8 -13 4 -17z m-107
-30 c0 -16 -16 -19 -25 -4 -8 13 4 32 16 25 5 -4 9 -13 9 -21z m-158 1 c0 -5
-5 -11 -11 -13 -6 -2 -11 4 -11 13 0 9 5 15 11 13 6 -2 11 -8 11 -13z m288
-30 c0 -8 -7 -15 -15 -15 -8 0 -15 7 -15 15 0 8 7 15 15 15 8 0 15 -7 15 -15z
m-190 -15 c0 -5 -4 -10 -10 -10 -5 0 -10 5 -10 10 0 6 5 10 10 10 6 0 10 -4
10 -10z m40 -60 c0 -5 -4 -10 -10 -10 -5 0 -10 5 -10 10 0 6 5 10 10 10 6 0
10 -4 10 -10z m70 -20 c0 -5 -4 -10 -10 -10 -5 0 -10 5 -10 10 0 6 5 10 10 10
6 0 10 -4 10 -10z m-1163 -55 c54 -26 65 -41 38 -52 -22 -8 -108 38 -111 60
-3 23 9 22 73 -8z m1703 -15 c0 -5 -4 -10 -10 -10 -5 0 -10 5 -10 10 0 6 5 10
10 10 6 0 10 -4 10 -10z m-1300 -30 c0 -5 -5 -10 -11 -10 -5 0 -7 5 -4 10 3 6
8 10 11 10 2 0 4 -4 4 -10z m1823 -26 c-2 -7 -10 -15 -18 -17 -10 -4 -10 0 -2
23 7 18 14 25 18 18 4 -6 5 -17 2 -24z m-433 -28 c0 -3 -4 -8 -10 -11 -5 -3
-10 -1 -10 4 0 6 5 11 10 11 6 0 10 -2 10 -4z m-1045 -26 c0 -22 -29 -18 -33
3 -3 14 1 18 15 15 10 -2 18 -10 18 -18z m-245 -45 c0 -8 -4 -15 -10 -15 -5 0
-10 7 -10 15 0 8 5 15 10 15 6 0 10 -7 10 -15z m290 -10 c0 -8 -4 -15 -10 -15
-5 0 -10 7 -10 15 0 8 5 15 10 15 6 0 10 -7 10 -15z m734 0 c7 -19 -13 -65
-28 -65 -33 1 -50 38 -28 63 19 21 48 22 56 2z m-204 -11 c0 -8 -5 -12 -10 -9
-6 4 -8 11 -5 16 9 14 15 11 15 -7z m-1100 -14 c0 -5 -4 -10 -10 -10 -5 0 -10
5 -10 10 0 6 5 10 10 10 6 0 10 -4 10 -10z m210 -20 c0 -5 -7 -10 -15 -10 -8
0 -15 5 -15 10 0 6 7 10 15 10 8 0 15 -4 15 -10z m988 -7 c-5 -25 -28 -28 -28
-4 0 12 6 21 16 21 9 0 14 -7 12 -17z m192 -13 c0 -5 -5 -10 -11 -10 -5 0 -7
5 -4 10 3 6 8 10 11 10 2 0 4 -4 4 -10z m-430 -71 c0 -5 -6 -9 -14 -9 -15 0
-28 24 -19 34 7 7 33 -13 33 -25z m-870 -19 c0 -5 -4 -10 -10 -10 -5 0 -10 5
-10 10 0 6 5 10 10 10 6 0 10 -4 10 -10z m190 -50 c0 -5 -4 -10 -10 -10 -5 0
-10 5 -10 10 0 6 5 10 10 10 6 0 10 -4 10 -10z m670 -4 c0 -8 -4 -17 -9 -21
-12 -7 -24 12 -16 25 9 15 25 12 25 -4z m90 -6 c0 -5 -4 -10 -10 -10 -5 0 -10
5 -10 10 0 6 5 10 10 10 6 0 10 -4 10 -10z m-590 -30 c0 -24 -26 -38 -42 -22
-16 16 -2 42 22 42 13 0 20 -7 20 -20z m784 -5 c-4 -8 -11 -15 -16 -15 -6 0
-5 6 2 15 7 8 14 15 16 15 2 0 1 -7 -2 -15z m-304 1 c0 -3 -4 -8 -10 -11 -5
-3 -10 -1 -10 4 0 6 5 11 10 11 6 0 10 -2 10 -4z m-743 -43 c-15 -15 -17 -15
-23 1 -8 21 16 40 30 26 7 -7 4 -16 -7 -27z m383 7 c0 -5 -4 -10 -10 -10 -5 0
-10 5 -10 10 0 6 5 10 10 10 6 0 10 -4 10 -10z m560 -5 c0 -8 -4 -15 -10 -15
-5 0 -10 7 -10 15 0 8 5 15 10 15 6 0 10 -7 10 -15z m-790 -20 c0 -8 -4 -15
-10 -15 -5 0 -10 7 -10 15 0 8 5 15 10 15 6 0 10 -7 10 -15z m630 -29 c0 -3
-4 -8 -10 -11 -5 -3 -10 -1 -10 4 0 6 5 11 10 11 6 0 10 -2 10 -4z m-460 -27
c0 -5 -7 -9 -15 -9 -15 0 -20 12 -9 23 8 8 24 -1 24 -14z m410 -33 c0 -3 -4
-8 -10 -11 -5 -3 -10 -1 -10 4 0 6 5 11 10 11 6 0 10 -2 10 -4z m60 -25 c0
-11 -4 -23 -10 -26 -5 -3 -10 -2 -10 4 0 5 -3 16 -6 25 -4 11 -1 16 10 16 9 0
16 -8 16 -19z m-343 -65 c-3 -8 1 -17 9 -20 18 -7 18 -42 0 -49 -8 -3 -22 0
-32 8 -15 10 -16 16 -6 28 7 8 10 22 6 31 -4 11 -1 16 11 16 11 0 15 -5 12
-14z m118 -10 c0 -22 -14 -29 -34 -17 -19 12 -6 43 16 39 10 -2 18 -12 18 -22z
m1334 -40 c21 -22 21 -24 5 -41 -10 -9 -25 -14 -37 -11 -11 2 -26 -2 -34 -10
-12 -11 -18 -12 -29 -3 -20 17 -17 29 13 61 33 34 53 35 82 4z m-1349 -11 c0
-8 -4 -15 -10 -15 -5 0 -10 7 -10 15 0 8 5 15 10 15 6 0 10 -7 10 -15z m-210
-25 c0 -5 -4 -10 -10 -10 -5 0 -10 5 -10 10 0 6 5 10 10 10 6 0 10 -4 10 -10z
m250 -14 c0 -3 -4 -8 -10 -11 -5 -3 -10 -1 -10 4 0 6 5 11 10 11 6 0 10 -2 10
-4z m1370 -59 c0 -24 -27 -33 -63 -19 -22 8 -34 9 -44 1 -9 -8 -13 -8 -13 0 0
6 4 11 10 11 5 0 7 6 4 14 -4 10 8 22 33 35 l38 20 17 -22 c10 -12 18 -30 18
-40z m-1500 -22 c0 -8 -9 -15 -20 -15 -11 0 -20 7 -20 15 0 8 9 15 20 15 11 0
20 -7 20 -15z m1770 -10 c0 -8 8 -30 17 -50 15 -32 15 -37 2 -51 -24 -24 -85
-29 -114 -10 -41 27 -33 61 22 96 52 33 73 38 73 15z m-157 -21 c7 -40 -3 -64
-27 -64 -47 0 -62 47 -23 73 32 23 44 21 50 -9z m-443 10 c0 -14 -22 -44 -30
-39 -13 8 0 45 16 45 8 0 14 -3 14 -6z m-1129 -19 c-1 -15 -24 -12 -29 3 -3 9
2 13 12 10 10 -1 17 -7 17 -13z m1472 -30 c34 -42 73 -64 109 -59 15 1 31 -2
34 -8 11 -17 -17 -26 -50 -17 -22 7 -49 5 -92 -7 -57 -15 -63 -15 -93 1 -27
14 -32 21 -29 48 2 23 12 38 37 54 45 30 51 29 84 -12z m-283 -274 c0 -6 -4
-13 -10 -16 -5 -3 -10 1 -10 9 0 9 5 16 10 16 6 0 10 -4 10 -9z m-97 -26 c-3
-9 -8 -14 -10 -11 -3 3 -2 9 2 15 9 16 15 13 8 -4z m-35 -44 c-7 -9 -14 -18
-15 -20 -2 -3 -2 7 -1 21 1 17 7 24 15 21 11 -4 11 -9 1 -22z m63 -24 c-10 -9
-11 -8 -5 6 3 10 9 15 12 12 3 -3 0 -11 -7 -18z m-81 -31 c0 -2 -7 -9 -15 -16
-13 -11 -14 -10 -9 4 5 14 24 23 24 12z m40 -17 c0 -6 -5 -7 -10 -4 -6 4 -19
1 -28 -6 -13 -11 -13 -9 2 8 18 22 36 22 36 2z m254 -1097 c17 -15 188 -182
380 -372 191 -190 354 -346 362 -348 12 -3 14 55 14 367 l0 371 70 0 70 0 0
-479 0 -479 -26 -31 c-53 -63 -44 -69 -466 352 l-383 382 -3 -377 -2 -378 -80
0 -80 0 0 486 c0 324 4 492 11 505 24 45 82 46 133 1z m-3736 -74 l-3 -83
-310 -6 c-190 -3 -323 -10 -343 -17 -133 -45 -196 -135 -209 -298 -5 -57 -1
-84 16 -136 41 -124 104 -192 206 -223 39 -11 106 -15 298 -15 l247 0 0 150 0
150 -231 0 -231 0 4 55 c3 30 7 57 10 60 2 3 142 5 309 6 l304 0 0 -277 0
-278 -35 -9 c-19 -5 -176 -7 -350 -5 l-315 3 -83 37 c-126 56 -193 110 -237
190 -40 75 -65 173 -65 264 0 135 73 313 164 397 41 38 145 93 201 107 17 5
171 8 343 9 l313 1 -3 -82z m102 -1610 c-1 -16 -24 -48 -35 -48 -4 0 -2 6 4
14 6 8 11 18 10 22 -3 16 1 24 11 24 6 0 10 -6 10 -12z m-232 -92 c3 -13 -1
-17 -14 -14 -11 2 -20 11 -22 22 -3 13 1 17 14 14 11 -2 20 -11 22 -22z m-129
-293 c-23 -30 -37 -43 -45 -43 -4 0 5 14 21 30 31 33 46 40 24 13z m-49 -75
c-1 -18 -58 -83 -66 -75 -4 3 8 24 27 46 39 45 39 45 39 29z m1220 -293 c0 -8
-7 -15 -15 -15 -8 0 -15 7 -15 15 0 8 7 15 15 15 8 0 15 -7 15 -15z m-560
-524 c0 -24 -7 -44 -18 -55 -18 -15 -20 -15 -45 7 -32 27 -35 67 -9 101 l17
24 28 -20 c21 -15 27 -27 27 -57z m-180 39 c0 -5 -4 -10 -10 -10 -5 0 -10 5
-10 10 0 6 5 10 10 10 6 0 10 -4 10 -10z m-780 -197 c0 -5 -10 -19 -21 -33
l-20 -25 16 33 c15 30 25 41 25 25z m-79 -46 c-10 -9 -11 -8 -5 6 3 10 9 15
12 12 3 -3 0 -11 -7 -18z m-325 -355 c-18 -16 -18 -16 -6 6 6 13 14 21 18 18
3 -4 -2 -14 -12 -24z"/>
<path d="M7487 8327 c-19 -24 -21 -33 -8 -41 8 -5 35 53 28 60 -1 1 -10 -7
-20 -19z"/>
<path d="M6299 7583 c-13 -16 -12 -17 4 -4 9 7 17 15 17 17 0 8 -8 3 -21 -13z"/>
<path d="M6190 7499 c0 -5 5 -7 10 -4 6 3 10 8 10 11 0 2 -4 4 -10 4 -5 0 -10
-5 -10 -11z"/>
<path d="M6063 7258 c-23 -30 -24 -41 -2 -21 12 12 20 25 17 28 -3 3 -10 0
-15 -7z"/>
<path d="M5592 6795 c-19 -16 -32 -21 -34 -14 -2 7 -15 2 -33 -14 -17 -14 -27
-29 -22 -33 4 -4 18 3 32 16 23 22 25 22 25 4 1 -18 1 -18 12 1 15 26 35 46
45 45 4 -1 9 3 11 9 6 17 -4 13 -36 -14z"/>
<path d="M6651 6654 c0 -11 3 -14 6 -6 3 7 2 16 -1 19 -3 4 -6 -2 -5 -13z"/>
<path d="M6550 6635 c0 -8 -9 -30 -19 -49 -26 -45 -15 -55 16 -14 23 32 31 78
13 78 -5 0 -10 -7 -10 -15z"/>
<path d="M6585 6641 c-6 -11 9 -23 19 -14 9 9 7 23 -3 23 -6 0 -12 -4 -16 -9z"/>
<path d="M6386 6615 c-4 -14 -10 -25 -15 -25 -5 0 -16 -14 -25 -31 -10 -21
-11 -29 -3 -26 7 2 17 14 24 28 7 13 17 24 22 24 18 0 32 21 25 38 -9 24 -21
21 -28 -8z"/>
<path d="M6510 6600 c-6 -11 -8 -20 -6 -20 3 0 10 9 16 20 6 11 8 20 6 20 -3
0 -10 -9 -16 -20z"/>
<path d="M6332 6350 c-18 -29 -15 -38 4 -12 9 13 14 25 12 27 -2 2 -9 -5 -16
-15z"/>
<path d="M6330 6295 c-7 -9 -8 -15 -2 -15 5 0 12 7 16 15 3 8 4 15 2 15 -2 0
-9 -7 -16 -15z"/>
<path d="M6270 6274 c0 -8 5 -12 10 -9 6 3 10 10 10 16 0 5 -4 9 -10 9 -5 0
-10 -7 -10 -16z"/>
<path d="M4236 6270 l-98 -5 -113 -118 -112 -117 -5 -463 c-2 -254 -3 -554 -1
-667 2 -113 3 -220 3 -237 0 -18 2 -33 4 -33 6 0 163 224 179 255 8 17 25 39
37 50 12 11 29 33 37 50 11 21 11 26 2 18 -20 -20 -31 -15 -19 7 8 14 8 20 0
20 -6 0 -13 -7 -16 -15 -7 -16 -34 -21 -34 -6 0 5 6 14 14 21 28 22 104 155
119 206 17 57 53 118 86 149 13 11 38 47 57 81 35 63 71 97 177 168 31 21 57
42 57 46 0 4 7 11 16 14 13 5 12 0 -5 -27 -28 -46 -43 -87 -31 -87 6 0 15 11
21 24 6 13 22 29 35 35 13 6 24 17 24 24 0 8 10 22 21 33 12 10 49 55 82 99
34 44 80 100 103 125 23 25 52 63 66 85 14 22 78 92 143 156 l117 117 -433 -2
c-239 0 -478 -3 -533 -6z"/>
<path d="M5492 6238 c-13 -13 -30 -32 -38 -43 -15 -19 -15 -19 -10 -1 7 19
-122 -99 -191 -175 -19 -21 -39 -36 -44 -33 -5 3 -9 -2 -9 -10 0 -22 12 -20
46 6 l29 22 -24 -27 c-14 -15 -21 -27 -18 -27 9 0 82 81 82 91 0 4 4 11 9 16
6 5 6 2 1 -7 -26 -45 125 110 173 178 27 38 25 41 -6 10z m-117 -136 l-38 -37
34 42 c19 23 36 39 38 37 3 -3 -12 -21 -34 -42z"/>
<path d="M6259 6173 c-9 -10 -14 -23 -12 -30 2 -6 -1 -14 -6 -18 -19 -11 -12
-23 9 -18 11 3 20 10 19 17 -1 6 1 19 5 28 13 28 2 42 -15 21z"/>
<path d="M5250 6073 c-41 -42 -61 -67 -45 -55 29 19 86 77 114 115 27 35 4 15
-69 -60z"/>
<path d="M6196 6104 c-3 -9 -2 -23 4 -32 9 -17 11 -15 15 26 3 25 -10 30 -19
6z"/>
<path d="M6149 6042 c-6 -18 -20 -37 -31 -43 -19 -10 -20 -9 -16 16 5 22 3 25
-7 13 -8 -7 -17 -31 -21 -53 -6 -36 -6 -39 9 -26 9 7 14 18 10 24 -3 5 -2 7 4
4 5 -3 27 12 48 33 30 31 36 43 27 52 -9 9 -14 4 -23 -20z"/>
<path d="M6016 5937 c-4 -9 -8 -24 -11 -32 -2 -8 2 -15 9 -15 17 0 27 33 15
51 -6 11 -9 10 -13 -4z"/>
<path d="M6255 5919 c-11 -17 1 -21 15 -4 8 9 8 15 2 15 -6 0 -14 -5 -17 -11z"/>
<path d="M5943 5843 c-3 -8 -3 -17 1 -20 3 -4 6 1 6 11 0 9 4 15 9 11 5 -3 12
-2 15 3 3 5 -2 9 -10 9 -9 0 -18 -7 -21 -14z"/>
<path d="M5896 5785 c-3 -8 -1 -15 4 -15 6 0 10 7 10 15 0 8 -2 15 -4 15 -2 0
-6 -7 -10 -15z"/>
<path d="M4370 5205 c-10 -12 -14 -120 -18 -504 l-5 -488 69 -5 c38 -3 232 -5
431 -4 422 2 403 -3 403 97 l0 59 -357 2 -358 3 -3 353 -2 352 172 1 c95 0
257 0 361 -1 l187 -1 0 54 c0 96 23 92 -454 95 -367 3 -414 1 -426 -13z"/>
<path d="M5625 5111 c-3 -12 -26 -36 -51 -55 -24 -19 -61 -58 -81 -87 -54 -79
-103 -169 -92 -169 10 0 17 8 69 74 16 21 30 32 30 24 0 -8 -9 -23 -20 -33
-11 -10 -17 -22 -14 -26 5 -9 4 -11 -47 -72 -17 -21 -30 -39 -28 -42 12 -11
69 30 78 58 6 16 14 28 17 24 6 -6 -15 -75 -30 -95 -5 -7 -6 -16 -2 -20 4 -4
12 1 17 10 5 9 16 24 24 32 8 8 12 22 9 30 -5 12 -2 15 10 10 10 -4 16 -1 16
7 0 14 67 79 81 79 14 0 10 -34 -6 -56 -8 -10 -15 -28 -15 -40 0 -11 -16 -35
-35 -54 -19 -19 -35 -39 -35 -46 0 -7 -16 -32 -36 -56 -20 -23 -58 -75 -85
-114 -26 -40 -60 -81 -74 -92 -26 -21 -33 -46 -14 -58 16 -9 2 -71 -27 -121
-13 -23 -24 -48 -24 -55 0 -7 -7 -26 -16 -43 -9 -16 -16 -40 -16 -51 1 -12
-15 -48 -36 -80 -21 -33 -54 -88 -72 -123 -42 -78 -120 -161 -151 -161 -15 0
-42 -20 -76 -56 -29 -30 -57 -53 -63 -49 -6 4 2 29 20 66 17 32 26 59 20 59
-5 0 -10 -4 -10 -9 0 -5 -6 -16 -13 -23 -7 -7 -26 -35 -42 -61 -15 -27 -36
-54 -46 -60 -11 -7 -19 -17 -19 -23 0 -15 -25 -25 -43 -18 -8 3 -20 -3 -28
-12 -9 -12 -10 -15 -1 -10 7 4 12 2 12 -4 0 -7 -8 -9 -19 -5 -11 3 -21 0 -24
-7 -2 -8 -18 -14 -33 -15 -16 -1 -23 1 -16 4 20 8 14 22 -8 16 -11 -3 -30 -21
-42 -41 -12 -20 -24 -30 -26 -24 -2 6 -10 8 -18 5 -8 -3 -17 4 -23 18 -9 26
-5 43 9 34 12 -7 43 41 35 54 -4 7 1 8 11 4 14 -5 16 -3 10 12 -4 11 -4 16 0
12 8 -7 54 38 54 53 0 5 7 7 15 4 11 -5 17 3 21 24 4 19 11 29 19 26 12 -5 26
28 30 74 2 27 -15 29 -22 2 -3 -11 -12 -20 -19 -20 -8 0 -19 -9 -26 -19 -9
-15 -16 -17 -25 -10 -10 9 -9 19 4 52 17 44 88 147 102 147 8 0 71 83 71 94 0
3 -5 6 -11 6 -5 0 -7 -4 -4 -10 3 -5 0 -10 -8 -10 -14 0 -65 -57 -99 -110 -8
-14 -34 -45 -56 -69 -23 -25 -39 -48 -36 -52 2 -5 -9 -18 -26 -31 -17 -12 -54
-53 -82 -89 -28 -37 -58 -69 -68 -72 -11 -3 -17 -15 -18 -37 0 -22 -11 -43
-31 -64 -17 -18 -31 -36 -31 -41 0 -6 -9 -21 -20 -35 -11 -14 -20 -33 -20 -42
0 -10 -4 -18 -10 -18 -5 0 -10 -9 -10 -20 0 -20 7 -20 569 -20 l570 0 78 60
c43 32 106 85 141 117 l62 58 1 794 c0 738 -4 860 -26 792z m-825 -1600 c0
-14 -28 -33 -40 -26 -20 12 -10 35 15 35 14 0 25 -4 25 -9z m-202 -48 c-10 -2
-18 -11 -18 -19 0 -8 -4 -12 -10 -9 -20 12 -9 31 18 32 15 0 19 -1 10 -4z"/>
<path d="M4708 4735 l-3 -63 50 -6 c28 -3 146 -5 263 -6 l212 0 0 63 0 64 -58
7 c-33 4 -149 6 -260 5 l-200 -1 -4 -63z"/>
<path d="M4565 4079 c-11 -17 1 -21 15 -4 8 9 8 15 2 15 -6 0 -14 -5 -17 -11z"/>
<path d="M4897 3783 c-4 -3 -7 -11 -7 -17 0 -6 5 -5 12 2 6 6 9 14 7 17 -3 3
-9 2 -12 -2z"/>
<path d="M4690 3764 c0 -8 5 -12 10 -9 6 3 10 10 10 16 0 5 -4 9 -10 9 -5 0
-10 -7 -10 -16z"/>
<path d="M3851 3687 c-13 -21 -12 -21 5 -5 10 10 16 20 13 22 -3 3 -11 -5 -18
-17z"/>
<path d="M3836 3613 c-6 -14 -5 -15 5 -6 7 7 10 15 7 18 -3 3 -9 -2 -12 -12z"/>
<path d="M3737 3556 c-15 -27 -27 -52 -27 -57 0 -5 -6 -6 -14 -3 -18 7 -29
-12 -18 -32 7 -12 13 -8 34 23 48 73 59 94 56 105 -3 7 -16 -10 -31 -36z"/>
<path d="M4650 3559 c0 -11 5 -17 10 -14 6 3 10 13 10 21 0 8 -4 14 -10 14 -5
0 -10 -9 -10 -21z"/>
<path d="M3622 3428 c-18 -11 -31 -26 -28 -33 2 -7 -3 -15 -13 -18 -20 -5 -56
-67 -40 -67 6 0 7 -6 4 -12 -4 -7 9 3 28 24 20 20 38 33 42 30 3 -4 2 6 -4 20
-7 19 -7 29 1 34 6 4 8 3 5 -3 -4 -6 -1 -13 7 -16 10 -4 12 0 9 14 -3 10 -1
19 5 19 5 0 12 7 16 15 7 19 8 19 -32 -7z m-32 -72 c0 -2 -8 -10 -17 -17 -16
-13 -17 -12 -4 4 13 16 21 21 21 13z"/>
<path d="M3490 3256 c0 -8 -3 -16 -8 -18 -4 -1 -25 -25 -47 -53 -43 -55 -67
-83 -104 -121 -14 -14 -26 -32 -27 -40 -1 -8 -10 -27 -19 -41 -19 -29 1 -21
23 9 7 10 22 18 33 18 14 0 19 7 19 25 0 14 7 28 15 31 8 4 15 13 15 21 0 7
11 26 25 41 14 15 31 40 39 57 8 16 26 39 40 49 29 21 33 36 11 36 -8 0 -15
-6 -15 -14z"/>
<path d="M2860 3249 c0 -5 5 -7 10 -4 6 3 10 8 10 11 0 2 -4 4 -10 4 -5 0 -10
-5 -10 -11z"/>
<path d="M2736 3104 c-5 -14 -4 -15 9 -4 17 14 19 20 6 20 -5 0 -12 -7 -15
-16z"/>
<path d="M3485 3110 c-3 -5 -1 -10 4 -10 6 0 11 5 11 10 0 6 -2 10 -4 10 -3 0
-8 -4 -11 -10z"/>
<path d="M3464 3079 c-18 -30 -54 -105 -54 -113 0 -5 9 -1 20 9 11 10 20 25
20 33 0 9 9 25 20 37 12 13 16 25 11 34 -7 11 -10 11 -17 0z"/>
<path d="M3626 3031 c-4 -5 -3 -16 0 -25 3 -9 2 -16 -4 -16 -5 0 -13 -8 -16
-17 -6 -16 -5 -16 12 0 11 10 20 29 20 42 0 27 -3 30 -12 16z"/>
<path d="M2526 2913 c-6 -14 -5 -15 5 -6 7 7 10 15 7 18 -3 3 -9 -2 -12 -12z"/>
<path d="M3651 2882 c-6 -11 -8 -22 -4 -25 10 -10 -18 -37 -38 -37 -11 0 -19
-2 -19 -4 0 -5 60 -66 64 -66 2 0 1 11 -2 25 -2 14 1 46 7 71 13 50 9 68 -8
36z"/>
<path d="M3176 2855 c-15 -19 -26 -38 -24 -43 2 -4 -18 -28 -44 -53 -27 -26
-48 -43 -48 -40 0 4 5 12 12 19 6 6 8 15 4 19 -9 9 -41 -27 -97 -112 -42 -63
-47 -76 -48 -130 -2 -60 -2 -60 16 -35 28 39 61 92 76 126 8 17 21 35 28 39 8
6 10 4 4 -6 -8 -12 -6 -12 8 0 19 15 23 36 5 25 -7 -4 -8 -3 -4 5 4 6 11 9 16
6 10 -6 32 29 24 38 -4 3 3 17 14 31 10 14 22 23 24 20 11 -10 44 53 47 89 1
5 5 6 9 3 4 -2 8 4 8 15 0 10 -1 19 -2 19 -1 0 -14 -16 -28 -35z m-176 -245
c0 -5 -5 -10 -11 -10 -5 0 -7 5 -4 10 3 6 8 10 11 10 2 0 4 -4 4 -10z"/>
<path d="M2435 2740 c-3 -5 -2 -10 4 -10 5 0 13 5 16 10 3 6 2 10 -4 10 -5 0
-13 -4 -16 -10z"/>
<path d="M2531 2700 c-33 -49 -37 -78 -7 -47 8 8 13 17 10 19 -2 3 7 21 21 41
13 21 21 37 17 37 -4 0 -22 -23 -41 -50z"/>
<path d="M3640 2722 c0 -5 9 -17 20 -27 15 -14 17 -22 9 -37 -13 -23 -6 -33
16 -24 18 7 14 34 -11 74 -14 22 -34 30 -34 14z"/>
<path d="M2420 2685 c-6 -15 -8 -30 -6 -33 3 -3 10 8 16 23 6 15 8 30 6 33 -3
3 -10 -8 -16 -23z"/>
<path d="M2452 2660 c0 -14 2 -19 5 -12 2 6 2 18 0 25 -3 6 -5 1 -5 -13z"/>
<path d="M2481 2654 c0 -11 3 -14 6 -6 3 7 2 16 -1 19 -3 4 -6 -2 -5 -13z"/>
<path d="M3266 2578 c-18 -25 -21 -58 -6 -58 5 0 12 12 16 28 3 15 7 33 10 40
5 19 -3 14 -20 -10z"/>
<path d="M2740 2489 c0 -5 5 -7 10 -4 6 3 10 8 10 11 0 2 -4 4 -10 4 -5 0 -10
-5 -10 -11z"/>
<path d="M3088 2452 c-51 -51 -57 -62 -32 -62 9 0 14 6 12 13 -3 6 3 21 13 31
17 18 19 18 19 2 0 -11 6 -16 16 -14 11 2 18 16 21 41 2 20 2 37 1 37 -2 0
-24 -22 -50 -48z"/>
<path d="M2704 2464 c-13 -11 -15 -17 -6 -20 6 -3 10 -10 6 -15 -3 -5 0 -9 5
-9 12 0 12 1 16 38 3 26 4 26 -21 6z"/>
<path d="M3095 2394 c9 -9 19 -13 23 -10 3 4 0 11 -8 16 -24 15 -33 11 -15 -6z"/>
<path d="M3006 2364 c-11 -7 -16 -17 -13 -21 4 -4 15 1 24 10 22 21 14 30 -11
11z"/>
<path d="M3036 2355 c-15 -23 -15 -25 0 -25 10 0 14 3 11 7 -4 3 -2 12 5 20 6
7 9 16 6 19 -3 2 -13 -7 -22 -21z"/>
<path d="M2480 2280 c0 -19 3 -21 12 -12 9 9 9 15 0 24 -9 9 -12 7 -12 -12z"/>
<path d="M2383 2268 c-19 -25 -24 -38 -14 -38 11 0 35 39 28 46 -2 3 -9 -1
-14 -8z"/>
<path d="M2310 2166 c-24 -31 -41 -59 -38 -61 3 -3 24 20 47 51 23 31 40 58
37 61 -2 2 -23 -21 -46 -51z"/>
<path d="M2280 2177 l-23 -32 29 27 c15 15 26 30 23 33 -3 2 -16 -10 -29 -28z"/>
<path d="M2675 2000 c-12 -4 -27 -15 -34 -23 -11 -14 -9 -15 21 -11 20 4 45 0
62 -10 22 -11 33 -12 43 -4 16 13 14 16 -13 21 -10 1 -25 6 -31 10 -7 5 -17 5
-23 2 -5 -3 -10 -2 -10 4 0 5 6 12 13 14 6 3 8 5 2 6 -5 0 -19 -4 -30 -9z"/>
<path d="M2286 1681 c-12 -5 -15 -10 -9 -14 6 -4 16 0 23 8 14 17 13 17 -14 6z"/>
<path d="M2306 1637 c3 -10 9 -15 12 -12 3 3 0 11 -7 18 -10 9 -11 8 -5 -6z"/>
<path d="M6855 7956 c-38 -51 -105 -155 -105 -161 0 -5 18 17 41 48 22 32 44
57 50 57 5 0 8 6 7 13 -2 6 4 11 12 9 8 -2 12 0 8 3 -4 4 -3 16 3 26 11 22 -1
26 -16 5z"/>
<path d="M6769 7713 c-13 -16 -12 -17 4 -4 16 13 21 21 13 21 -2 0 -10 -8 -17
-17z"/>
</g>
</svg>
